<svg xmlns="http://www.w3.org/2000/svg" version="1.1" xmlns:xlink="http://www.w3.org/1999/xlink" width="512" height="512" x="0" y="0" viewBox="0 0 682.667 682.667" style="enable-background:new 0 0 512 512" xml:space="preserve" class=""><g><defs stroke-width="15" style="stroke-width: 15;"><clipPath id="a" clipPathUnits="userSpaceOnUse" stroke-width="15" style="stroke-width: 15;"><path d="M0 512h512V0H0Z" fill="#000000" opacity="1" data-original="#000000" stroke-width="15" style="stroke-width: 15;"></path></clipPath></defs><path d="M0 0h120" style="stroke-width: 15; stroke-linecap: round; stroke-linejoin: round; stroke-miterlimit: 10; stroke-dasharray: none; stroke-opacity: 1;" transform="matrix(1.33333 0 0 -1.33333 181.333 381.333)" fill="none" stroke="#000000" stroke-width="15" stroke-linecap="round" stroke-linejoin="round" stroke-miterlimit="10" stroke-dasharray="none" stroke-opacity="" data-original="#000000" class=""></path><path d="M0 0h120" style="stroke-width: 15; stroke-linecap: round; stroke-linejoin: round; stroke-miterlimit: 10; stroke-dasharray: none; stroke-opacity: 1;" transform="matrix(1.33333 0 0 -1.33333 181.333 301.333)" fill="none" stroke="#000000" stroke-width="15" stroke-linecap="round" stroke-linejoin="round" stroke-miterlimit="10" stroke-dasharray="none" stroke-opacity="" data-original="#000000" class=""></path><g clip-path="url(#a)" transform="matrix(1.33333 0 0 -1.33333 0 682.667)" stroke-width="15" style="stroke-width: 15;"><path d="M0 0c-16.24-18.56-38.47-30-62.99-30-42.04 0-75.34 32.7-86.22 75a120.5 120.5 0 0 0-3.78 30c0 10.32 1.31 20.41 3.78 30 10.89 42.33 44.23 75 86.22 75 24.52 0 46.75-11.44 62.99-30" style="stroke-width: 15; stroke-linecap: round; stroke-linejoin: round; stroke-miterlimit: 10; stroke-dasharray: none; stroke-opacity: 1;" transform="translate(318.99 181)" fill="none" stroke="#000000" stroke-width="15" stroke-linecap="round" stroke-linejoin="round" stroke-miterlimit="10" stroke-dasharray="none" stroke-opacity="" data-original="#000000" class=""></path><path d="M0 0c-135.96 0-246 110.02-246 246 0 135.96 110.02 246 246 246 135.96 0 246-110.02 246-246C246 110.04 135.98 0 0 0" style="stroke-width: 15; stroke-linecap: round; stroke-linejoin: round; stroke-miterlimit: 10; stroke-dasharray: none; stroke-opacity: 1;" transform="translate(256 10)" fill="none" stroke="#000000" stroke-width="15" stroke-linecap="round" stroke-linejoin="round" stroke-miterlimit="10" stroke-dasharray="none" stroke-opacity="" data-original="#000000" class=""></path><path d="M0 0c-5.518 0-10 4.482-10 10s4.482 10 10 10 10-4.482 10-10S5.518 0 0 0" style="fill-opacity: 1; fill-rule: nonzero; stroke: none; stroke-width: 15;" transform="translate(387 115)" fill="#000000" data-original="#000000" stroke-width="15"></path><path d="M0 0c-28.042-16.968-60.903-26.741-96.003-26.741-102.56 0-186 83.44-186 186s83.44 186 186 186 186-83.44 186-186c0-35.1-9.773-67.961-26.742-96.004" style="stroke-width: 15; stroke-linecap: round; stroke-linejoin: round; stroke-miterlimit: 10; stroke-dasharray: none; stroke-opacity: 1;" transform="translate(352.003 96.741)" fill="none" stroke="#000000" stroke-width="15" stroke-linecap="round" stroke-linejoin="round" stroke-miterlimit="10" stroke-dasharray="none" stroke-opacity="" data-original="#000000" class=""></path></g></g></svg>